<svg xmlns="http://www.w3.org/2000/svg" xmlns:xlink="http://www.w3.org/1999/xlink" contentStyleType="text/css" data-diagram-type="CLASS" height="575px" preserveAspectRatio="none" style="width:961px;height:575px;background:#FFFFFF;" version="1.1" viewBox="0 0 961 575" width="961px" zoomAndPan="magnify"><defs/><g><!--cluster Client Side--><g class="cluster" data-entity="Client Side" data-source-line="7" data-uid="ent0002" id="cluster_Client Side"><path d="M15.5,300.18 L101.7988,300.18 A3.75,3.75 0 0 1 104.2988,302.68 L111.2988,322.4769 L208.5,322.4769 A2.5,2.5 0 0 1 211,324.9769 L211,407.28 A2.5,2.5 0 0 1 208.5,409.78 L15.5,409.78 A2.5,2.5 0 0 1 13,407.28 L13,302.68 A2.5,2.5 0 0 1 15.5,300.18" fill="none" style="stroke:#000000;stroke-width:1.5;"/><line style="stroke:#000000;stroke-width:1.5;" x1="13" x2="111.2988" y1="322.4769" y2="322.4769"/><text fill="#000000" font-family="sans-serif" font-size="14" font-weight="bold" lengthAdjust="spacing" textLength="85.2988" x="17" y="315.1751">Client Side</text></g><!--cluster Gateway Layer--><g class="cluster" data-entity="Gateway Layer" data-source-line="11" data-uid="ent0004" id="cluster_Gateway Layer"><path d="M8.5,464.07 L126.9004,464.07 A3.75,3.75 0 0 1 129.4004,466.57 L136.4004,486.3669 L417.5,486.3669 A2.5,2.5 0 0 1 420,488.8669 L420,560.57 A2.5,2.5 0 0 1 417.5,563.07 L8.5,563.07 A2.5,2.5 0 0 1 6,560.57 L6,466.57 A2.5,2.5 0 0 1 8.5,464.07" fill="none" style="stroke:#000000;stroke-width:1.5;"/><line style="stroke:#000000;stroke-width:1.5;" x1="6" x2="136.4004" y1="486.3669" y2="486.3669"/><text fill="#000000" font-family="sans-serif" font-size="14" font-weight="bold" lengthAdjust="spacing" textLength="117.4004" x="10" y="479.0651">Gateway Layer</text></g><!--cluster Processing Layer--><g class="cluster" data-entity="Processing Layer" data-source-line="16" data-uid="ent0007" id="cluster_Processing Layer"><path d="M367.5,6 L503.2979,6 A3.75,3.75 0 0 1 505.7979,8.5 L512.7979,28.2969 L558.5,28.2969 A2.5,2.5 0 0 1 561,30.7969 L561,407.28 A2.5,2.5 0 0 1 558.5,409.78 L367.5,409.78 A2.5,2.5 0 0 1 365,407.28 L365,8.5 A2.5,2.5 0 0 1 367.5,6" fill="none" style="stroke:#000000;stroke-width:1.5;"/><line style="stroke:#000000;stroke-width:1.5;" x1="365" x2="512.7979" y1="28.2969" y2="28.2969"/><text fill="#000000" font-family="sans-serif" font-size="14" font-weight="bold" lengthAdjust="spacing" textLength="134.7979" x="369" y="20.9951">Processing Layer</text></g><!--cluster Data Layer--><g class="cluster" data-entity="Data Layer" data-source-line="22" data-uid="ent0011" id="cluster_Data Layer"><path d="M446.5,458.78 L533.4756,458.78 A3.75,3.75 0 0 1 535.9756,461.28 L542.9756,481.0769 L951.5,481.0769 A2.5,2.5 0 0 1 954,483.5769 L954,565.87 A2.5,2.5 0 0 1 951.5,568.37 L446.5,568.37 A2.5,2.5 0 0 1 444,565.87 L444,461.28 A2.5,2.5 0 0 1 446.5,458.78" fill="none" style="stroke:#000000;stroke-width:1.5;"/><line style="stroke:#000000;stroke-width:1.5;" x1="444" x2="542.9756" y1="481.0769" y2="481.0769"/><text fill="#000000" font-family="sans-serif" font-size="14" font-weight="bold" lengthAdjust="spacing" textLength="85.9756" x="448" y="473.7751">Data Layer</text></g><!--cluster Monitoring--><g class="cluster" data-entity="Monitoring" data-source-line="28" data-uid="ent0015" id="cluster_Monitoring"><path d="M724.5,6 L811.8174,6 A3.75,3.75 0 0 1 814.3174,8.5 L821.3174,28.2969 L869.5,28.2969 A2.5,2.5 0 0 1 872,30.7969 L872,248.68 A2.5,2.5 0 0 1 869.5,251.18 L724.5,251.18 A2.5,2.5 0 0 1 722,248.68 L722,8.5 A2.5,2.5 0 0 1 724.5,6" fill="none" style="stroke:#000000;stroke-width:1.5;"/><line style="stroke:#000000;stroke-width:1.5;" x1="722" x2="821.3174" y1="28.2969" y2="28.2969"/><text fill="#000000" font-family="sans-serif" font-size="14" font-weight="bold" lengthAdjust="spacing" textLength="86.3174" x="726" y="20.9951">Monitoring</text></g><!--class UI--><g class="entity" data-entity="UI" data-source-line="8" data-uid="ent0003" id="entity_UI"><rect fill="#F1F1F1" height="58.5938" rx="2.5" ry="2.5" style="stroke:#181818;stroke-width:0.5;" width="165.0684" x="29.47" y="335.18"/><ellipse cx="44.47" cy="356.4769" fill="#ADD1B2" rx="11" ry="11" style="stroke:#181818;stroke-width:1;"/><path d="M47.4388,362.1175 Q46.8606,362.4144 46.22,362.555 Q45.5794,362.7113 44.8763,362.7113 Q42.3763,362.7113 41.0481,361.0706 Q39.7356,359.4144 39.7356,356.2894 Q39.7356,353.1644 41.0481,351.5081 Q42.3763,349.8519 44.8763,349.8519 Q45.5794,349.8519 46.22,350.0081 Q46.8763,350.1644 47.4388,350.4613 L47.4388,353.18 Q46.8138,352.6019 46.22,352.3363 Q45.6263,352.055 45.0013,352.055 Q43.6575,352.055 42.97,353.1331 Q42.2825,354.1956 42.2825,356.2894 Q42.2825,358.3831 42.97,359.4613 Q43.6575,360.5238 45.0013,360.5238 Q45.6263,360.5238 46.22,360.2581 Q46.8138,359.9769 47.4388,359.3988 L47.4388,362.1175 Z " fill="#000000"/><text fill="#000000" font-family="sans-serif" font-size="14" lengthAdjust="spacing" textLength="99.0391" x="75.4846" y="353.1751">User Interface</text><text fill="#000000" font-family="sans-serif" font-size="14" lengthAdjust="spacing" textLength="133.0684" x="58.47" y="369.472">(Moderation Panel)</text><line style="stroke:#181818;stroke-width:0.5;" x1="30.47" x2="193.5384" y1="377.7738" y2="377.7738"/><line style="stroke:#181818;stroke-width:0.5;" x1="30.47" x2="193.5384" y1="385.7738" y2="385.7738"/></g><!--class APIGW--><g class="entity" data-entity="APIGW" data-source-line="12" data-uid="ent0005" id="entity_APIGW"><rect fill="#F1F1F1" height="48" rx="2.5" ry="2.5" style="stroke:#181818;stroke-width:0.5;" width="180.5723" x="21.71" y="499.07"/><ellipse cx="36.71" cy="515.07" fill="#ADD1B2" rx="11" ry="11" style="stroke:#181818;stroke-width:1;"/><path d="M39.6788,520.7106 Q39.1006,521.0075 38.46,521.1481 Q37.8194,521.3044 37.1163,521.3044 Q34.6163,521.3044 33.2881,519.6638 Q31.9756,518.0075 31.9756,514.8825 Q31.9756,511.7575 33.2881,510.1013 Q34.6163,508.445 37.1163,508.445 Q37.8194,508.445 38.46,508.6013 Q39.1163,508.7575 39.6788,509.0544 L39.6788,511.7731 Q39.0538,511.195 38.46,510.9294 Q37.8663,510.6481 37.2413,510.6481 Q35.8975,510.6481 35.21,511.7263 Q34.5225,512.7888 34.5225,514.8825 Q34.5225,516.9763 35.21,518.0544 Q35.8975,519.1169 37.2413,519.1169 Q37.8663,519.1169 38.46,518.8513 Q39.0538,518.57 39.6788,517.9919 L39.6788,520.7106 Z " fill="#000000"/><text fill="#000000" font-family="sans-serif" font-size="14" lengthAdjust="spacing" textLength="148.5723" x="50.71" y="519.9167">Content API Gateway</text><line style="stroke:#181818;stroke-width:0.5;" x1="22.71" x2="201.2823" y1="531.07" y2="531.07"/><line style="stroke:#181818;stroke-width:0.5;" x1="22.71" x2="201.2823" y1="539.07" y2="539.07"/></g><!--class WS--><g class="entity" data-entity="WS" data-source-line="13" data-uid="ent0006" id="entity_WS"><rect fill="#F1F1F1" height="48" rx="2.5" ry="2.5" style="stroke:#181818;stroke-width:0.5;" width="166.7568" x="237.62" y="499.07"/><ellipse cx="252.62" cy="515.07" fill="#ADD1B2" rx="11" ry="11" style="stroke:#181818;stroke-width:1;"/><path d="M255.5888,520.7106 Q255.0106,521.0075 254.37,521.1481 Q253.7294,521.3044 253.0263,521.3044 Q250.5263,521.3044 249.1981,519.6638 Q247.8856,518.0075 247.8856,514.8825 Q247.8856,511.7575 249.1981,510.1013 Q250.5263,508.445 253.0263,508.445 Q253.7294,508.445 254.37,508.6013 Q255.0263,508.7575 255.5888,509.0544 L255.5888,511.7731 Q254.9638,511.195 254.37,510.9294 Q253.7763,510.6481 253.1513,510.6481 Q251.8075,510.6481 251.12,511.7263 Q250.4325,512.7888 250.4325,514.8825 Q250.4325,516.9763 251.12,518.0544 Q251.8075,519.1169 253.1513,519.1169 Q253.7763,519.1169 254.37,518.8513 Q254.9638,518.57 255.5888,517.9919 L255.5888,520.7106 Z " fill="#000000"/><text fill="#000000" font-family="sans-serif" font-size="14" lengthAdjust="spacing" textLength="134.7568" x="266.62" y="519.9167">WebSocket Notifier</text><line style="stroke:#181818;stroke-width:0.5;" x1="238.62" x2="403.3768" y1="531.07" y2="531.07"/><line style="stroke:#181818;stroke-width:0.5;" x1="238.62" x2="403.3768" y1="539.07" y2="539.07"/></g><!--class Stream--><g class="entity" data-entity="Stream" data-source-line="17" data-uid="ent0008" id="entity_Stream"><rect fill="#F1F1F1" height="58.5938" rx="2.5" ry="2.5" style="stroke:#181818;stroke-width:0.5;" width="134.4365" x="382.78" y="41"/><ellipse cx="397.78" cy="62.2969" fill="#ADD1B2" rx="11" ry="11" style="stroke:#181818;stroke-width:1;"/><path d="M400.7488,67.9375 Q400.1706,68.2344 399.53,68.375 Q398.8894,68.5313 398.1863,68.5313 Q395.6863,68.5313 394.3581,66.8906 Q393.0456,65.2344 393.0456,62.1094 Q393.0456,58.9844 394.3581,57.3281 Q395.6863,55.6719 398.1863,55.6719 Q398.8894,55.6719 399.53,55.8281 Q400.1863,55.9844 400.7488,56.2813 L400.7488,59 Q400.1238,58.4219 399.53,58.1563 Q398.9363,57.875 398.3113,57.875 Q396.9675,57.875 396.28,58.9531 Q395.5925,60.0156 395.5925,62.1094 Q395.5925,64.2031 396.28,65.2813 Q396.9675,66.3438 398.3113,66.3438 Q398.9363,66.3438 399.53,66.0781 Q400.1238,65.7969 400.7488,65.2188 L400.7488,67.9375 Z " fill="#000000"/><text fill="#000000" font-family="sans-serif" font-size="14" lengthAdjust="spacing" textLength="102.4365" x="411.78" y="58.9951">Stream Router</text><text fill="#000000" font-family="sans-serif" font-size="14" lengthAdjust="spacing" textLength="50.2988" x="437.8488" y="75.292">(Kafka)</text><line style="stroke:#181818;stroke-width:0.5;" x1="383.78" x2="516.2165" y1="83.5938" y2="83.5938"/><line style="stroke:#181818;stroke-width:0.5;" x1="383.78" x2="516.2165" y1="91.5938" y2="91.5938"/></g><!--class ML--><g class="entity" data-entity="ML" data-source-line="18" data-uid="ent0009" id="entity_ML"><rect fill="#F1F1F1" height="58.5938" rx="2.5" ry="2.5" style="stroke:#181818;stroke-width:0.5;" width="122.4258" x="410.79" y="335.18"/><ellipse cx="425.79" cy="356.4769" fill="#ADD1B2" rx="11" ry="11" style="stroke:#181818;stroke-width:1;"/><path d="M428.7588,362.1175 Q428.1806,362.4144 427.54,362.555 Q426.8994,362.7113 426.1963,362.7113 Q423.6963,362.7113 422.3681,361.0706 Q421.0556,359.4144 421.0556,356.2894 Q421.0556,353.1644 422.3681,351.5081 Q423.6963,349.8519 426.1963,349.8519 Q426.8994,349.8519 427.54,350.0081 Q428.1963,350.1644 428.7588,350.4613 L428.7588,353.18 Q428.1338,352.6019 427.54,352.3363 Q426.9463,352.055 426.3213,352.055 Q424.9775,352.055 424.29,353.1331 Q423.6025,354.1956 423.6025,356.2894 Q423.6025,358.3831 424.29,359.4613 Q424.9775,360.5238 426.3213,360.5238 Q426.9463,360.5238 427.54,360.2581 Q428.1338,359.9769 428.7588,359.3988 L428.7588,362.1175 Z " fill="#000000"/><text fill="#000000" font-family="sans-serif" font-size="14" lengthAdjust="spacing" textLength="90.4258" x="439.79" y="353.1751">ML Inference</text><text fill="#000000" font-family="sans-serif" font-size="14" lengthAdjust="spacing" textLength="51.7412" x="459.1323" y="369.472">Service</text><line style="stroke:#181818;stroke-width:0.5;" x1="411.79" x2="532.2158" y1="377.7738" y2="377.7738"/><line style="stroke:#181818;stroke-width:0.5;" x1="411.79" x2="532.2158" y1="385.7738" y2="385.7738"/></g><!--class Preproc--><g class="entity" data-entity="Preproc" data-source-line="19" data-uid="ent0010" id="entity_Preproc"><rect fill="#F1F1F1" height="48" rx="2.5" ry="2.5" style="stroke:#181818;stroke-width:0.5;" width="163.5166" x="381.24" y="181.89"/><ellipse cx="396.24" cy="197.89" fill="#ADD1B2" rx="11" ry="11" style="stroke:#181818;stroke-width:1;"/><path d="M399.2088,203.5306 Q398.6306,203.8275 397.99,203.9681 Q397.3494,204.1244 396.6463,204.1244 Q394.1463,204.1244 392.8181,202.4838 Q391.5056,200.8275 391.5056,197.7025 Q391.5056,194.5775 392.8181,192.9213 Q394.1463,191.265 396.6463,191.265 Q397.3494,191.265 397.99,191.4213 Q398.6463,191.5775 399.2088,191.8744 L399.2088,194.5931 Q398.5838,194.015 397.99,193.7494 Q397.3963,193.4681 396.7713,193.4681 Q395.4275,193.4681 394.74,194.5463 Q394.0525,195.6088 394.0525,197.7025 Q394.0525,199.7963 394.74,200.8744 Q395.4275,201.9369 396.7713,201.9369 Q397.3963,201.9369 397.99,201.6713 Q398.5838,201.39 399.2088,200.8119 L399.2088,203.5306 Z " fill="#000000"/><text fill="#000000" font-family="sans-serif" font-size="14" lengthAdjust="spacing" textLength="131.5166" x="410.24" y="202.7367">Preprocessing Unit</text><line style="stroke:#181818;stroke-width:0.5;" x1="382.24" x2="543.7566" y1="213.89" y2="213.89"/><line style="stroke:#181818;stroke-width:0.5;" x1="382.24" x2="543.7566" y1="221.89" y2="221.89"/></g><!--class PG--><g class="entity" data-entity="PG" data-source-line="23" data-uid="ent0012" id="entity_PG"><rect fill="#F1F1F1" height="58.5938" rx="2.5" ry="2.5" style="stroke:#181818;stroke-width:0.5;" width="149.2158" x="460.39" y="493.78"/><ellipse cx="475.39" cy="515.0769" fill="#ADD1B2" rx="11" ry="11" style="stroke:#181818;stroke-width:1;"/><path d="M478.3588,520.7175 Q477.7806,521.0144 477.14,521.155 Q476.4994,521.3113 475.7963,521.3113 Q473.2963,521.3113 471.9681,519.6706 Q470.6556,518.0144 470.6556,514.8894 Q470.6556,511.7644 471.9681,510.1081 Q473.2963,508.4519 475.7963,508.4519 Q476.4994,508.4519 477.14,508.6081 Q477.7963,508.7644 478.3588,509.0613 L478.3588,511.78 Q477.7338,511.2019 477.14,510.9363 Q476.5463,510.655 475.9213,510.655 Q474.5775,510.655 473.89,511.7331 Q473.2025,512.7956 473.2025,514.8894 Q473.2025,516.9831 473.89,518.0613 Q474.5775,519.1238 475.9213,519.1238 Q476.5463,519.1238 477.14,518.8581 Q477.7338,518.5769 478.3588,517.9988 L478.3588,520.7175 Z " fill="#000000"/><text fill="#000000" font-family="sans-serif" font-size="14" lengthAdjust="spacing" textLength="80.7529" x="507.6214" y="511.7751">PostgreSQL</text><text fill="#000000" font-family="sans-serif" font-size="14" lengthAdjust="spacing" textLength="117.2158" x="489.39" y="528.072">(relational store)</text><line style="stroke:#181818;stroke-width:0.5;" x1="461.39" x2="608.6058" y1="536.3738" y2="536.3738"/><line style="stroke:#181818;stroke-width:0.5;" x1="461.39" x2="608.6058" y1="544.3738" y2="544.3738"/></g><!--class CH--><g class="entity" data-entity="CH" data-source-line="24" data-uid="ent0013" id="entity_CH"><rect fill="#F1F1F1" height="58.5938" rx="2.5" ry="2.5" style="stroke:#181818;stroke-width:0.5;" width="130.335" x="644.83" y="493.78"/><ellipse cx="659.83" cy="515.0769" fill="#ADD1B2" rx="11" ry="11" style="stroke:#181818;stroke-width:1;"/><path d="M662.7988,520.7175 Q662.2206,521.0144 661.58,521.155 Q660.9394,521.3113 660.2363,521.3113 Q657.7363,521.3113 656.4081,519.6706 Q655.0956,518.0144 655.0956,514.8894 Q655.0956,511.7644 656.4081,510.1081 Q657.7363,508.4519 660.2363,508.4519 Q660.9394,508.4519 661.58,508.6081 Q662.2363,508.7644 662.7988,509.0613 L662.7988,511.78 Q662.1738,511.2019 661.58,510.9363 Q660.9863,510.655 660.3613,510.655 Q659.0175,510.655 658.33,511.7331 Q657.6425,512.7956 657.6425,514.8894 Q657.6425,516.9831 658.33,518.0613 Q659.0175,519.1238 660.3613,519.1238 Q660.9863,519.1238 661.58,518.8581 Q662.1738,518.5769 662.7988,517.9988 L662.7988,520.7175 Z " fill="#000000"/><text fill="#000000" font-family="sans-serif" font-size="14" lengthAdjust="spacing" textLength="77.2324" x="684.3813" y="511.7751">ClickHouse</text><text fill="#000000" font-family="sans-serif" font-size="14" lengthAdjust="spacing" textLength="98.335" x="673.83" y="528.072">(analytics DB)</text><line style="stroke:#181818;stroke-width:0.5;" x1="645.83" x2="774.165" y1="536.3738" y2="536.3738"/><line style="stroke:#181818;stroke-width:0.5;" x1="645.83" x2="774.165" y1="544.3738" y2="544.3738"/></g><!--class S3--><g class="entity" data-entity="S3" data-source-line="25" data-uid="ent0014" id="entity_S3"><rect fill="#F1F1F1" height="58.5938" rx="2.5" ry="2.5" style="stroke:#181818;stroke-width:0.5;" width="127.7031" x="810.15" y="493.78"/><ellipse cx="825.15" cy="515.0769" fill="#ADD1B2" rx="11" ry="11" style="stroke:#181818;stroke-width:1;"/><path d="M828.1188,520.7175 Q827.5406,521.0144 826.9,521.155 Q826.2594,521.3113 825.5563,521.3113 Q823.0563,521.3113 821.7281,519.6706 Q820.4156,518.0144 820.4156,514.8894 Q820.4156,511.7644 821.7281,510.1081 Q823.0563,508.4519 825.5563,508.4519 Q826.2594,508.4519 826.9,508.6081 Q827.5563,508.7644 828.1188,509.0613 L828.1188,511.78 Q827.4938,511.2019 826.9,510.9363 Q826.3063,510.655 825.6813,510.655 Q824.3375,510.655 823.65,511.7331 Q822.9625,512.7956 822.9625,514.8894 Q822.9625,516.9831 823.65,518.0613 Q824.3375,519.1238 825.6813,519.1238 Q826.3063,519.1238 826.9,518.8581 Q827.4938,518.5769 828.1188,517.9988 L828.1188,520.7175 Z " fill="#000000"/><text fill="#000000" font-family="sans-serif" font-size="14" lengthAdjust="spacing" textLength="70.6289" x="851.6871" y="511.7751">S3 Bucket</text><text fill="#000000" font-family="sans-serif" font-size="14" lengthAdjust="spacing" textLength="95.7031" x="839.15" y="528.072">(archive logs)</text><line style="stroke:#181818;stroke-width:0.5;" x1="811.15" x2="936.8531" y1="536.3738" y2="536.3738"/><line style="stroke:#181818;stroke-width:0.5;" x1="811.15" x2="936.8531" y1="544.3738" y2="544.3738"/></g><!--class Prom--><g class="entity" data-entity="Prom" data-source-line="29" data-uid="ent0016" id="entity_Prom"><rect fill="#F1F1F1" height="58.5938" rx="2.5" ry="2.5" style="stroke:#181818;stroke-width:0.5;" width="116.1572" x="738.92" y="41"/><ellipse cx="753.92" cy="62.2969" fill="#ADD1B2" rx="11" ry="11" style="stroke:#181818;stroke-width:1;"/><path d="M756.8888,67.9375 Q756.3106,68.2344 755.67,68.375 Q755.0294,68.5313 754.3263,68.5313 Q751.8263,68.5313 750.4981,66.8906 Q749.1856,65.2344 749.1856,62.1094 Q749.1856,58.9844 750.4981,57.3281 Q751.8263,55.6719 754.3263,55.6719 Q755.0294,55.6719 755.67,55.8281 Q756.3263,55.9844 756.8888,56.2813 L756.8888,59 Q756.2638,58.4219 755.67,58.1563 Q755.0763,57.875 754.4513,57.875 Q753.1075,57.875 752.42,58.9531 Q751.7325,60.0156 751.7325,62.1094 Q751.7325,64.2031 752.42,65.2813 Q753.1075,66.3438 754.4513,66.3438 Q755.0763,66.3438 755.67,66.0781 Q756.2638,65.7969 756.8888,65.2188 L756.8888,67.9375 Z " fill="#000000"/><text fill="#000000" font-family="sans-serif" font-size="14" lengthAdjust="spacing" textLength="84.1572" x="767.92" y="58.9951">Prometheus</text><text fill="#000000" font-family="sans-serif" font-size="14" lengthAdjust="spacing" textLength="63.3008" x="778.3482" y="75.292">(metrics)</text><line style="stroke:#181818;stroke-width:0.5;" x1="739.92" x2="854.0772" y1="83.5938" y2="83.5938"/><line style="stroke:#181818;stroke-width:0.5;" x1="739.92" x2="854.0772" y1="91.5938" y2="91.5938"/></g><!--class Graf--><g class="entity" data-entity="Graf" data-source-line="30" data-uid="ent0017" id="entity_Graf"><rect fill="#F1F1F1" height="58.5938" rx="2.5" ry="2.5" style="stroke:#181818;stroke-width:0.5;" width="117.2305" x="738.38" y="176.59"/><ellipse cx="753.38" cy="197.8869" fill="#ADD1B2" rx="11" ry="11" style="stroke:#181818;stroke-width:1;"/><path d="M756.3488,203.5275 Q755.7706,203.8244 755.13,203.965 Q754.4894,204.1213 753.7863,204.1213 Q751.2863,204.1213 749.9581,202.4806 Q748.6456,200.8244 748.6456,197.6994 Q748.6456,194.5744 749.9581,192.9181 Q751.2863,191.2619 753.7863,191.2619 Q754.4894,191.2619 755.13,191.4181 Q755.7863,191.5744 756.3488,191.8713 L756.3488,194.59 Q755.7238,194.0119 755.13,193.7463 Q754.5363,193.465 753.9113,193.465 Q752.5675,193.465 751.88,194.5431 Q751.1925,195.6056 751.1925,197.6994 Q751.1925,199.7931 751.88,200.8713 Q752.5675,201.9338 753.9113,201.9338 Q754.5363,201.9338 755.13,201.6681 Q755.7238,201.3869 756.3488,200.8088 L756.3488,203.5275 Z " fill="#000000"/><text fill="#000000" font-family="sans-serif" font-size="14" lengthAdjust="spacing" textLength="56.1436" x="781.9235" y="194.5851">Grafana</text><text fill="#000000" font-family="sans-serif" font-size="14" lengthAdjust="spacing" textLength="85.2305" x="767.38" y="210.882">(dashboard)</text><line style="stroke:#181818;stroke-width:0.5;" x1="739.38" x2="854.6105" y1="219.1838" y2="219.1838"/><line style="stroke:#181818;stroke-width:0.5;" x1="739.38" x2="854.6105" y1="227.1838" y2="227.1838"/></g><!--link UI to APIGW--><g class="link" data-entity-1="UI" data-entity-2="APIGW" data-source-line="33" data-uid="lnk18" id="link_UI_APIGW"><path codeLine="33" d="M112,394.2 C112,424.22 112,464.76 112,492.64" fill="none" id="UI-to-APIGW" style="stroke:#181818;stroke-width:1;"/><polygon fill="#181818" points="112,498.64,116,489.64,112,493.64,108,489.64,112,498.64" style="stroke:#181818;stroke-width:1;"/><text fill="#000000" font-family="sans-serif" font-size="13" lengthAdjust="spacing" textLength="97.1572" x="113" y="438.8469">send comment</text></g><!--link APIGW to Stream--><g class="link" data-entity-1="APIGW" data-entity-2="Stream" data-source-line="34" data-uid="lnk19" id="link_APIGW_Stream"><path codeLine="34" d="M151.7,498.67 C173.45,484.47 199.8,464.84 219,442.78 C307.42,341.13 288.84,288.4 364,176.59 C382.43,149.16 402.485,124.7608 420.435,104.1908" fill="none" id="APIGW-to-Stream" style="stroke:#181818;stroke-width:1;"/><polygon fill="#181818" points="424.38,99.67,415.4487,103.8212,421.0925,103.4373,421.4764,109.0811,424.38,99.67" style="stroke:#181818;stroke-width:1;"/><text fill="#000000" font-family="sans-serif" font-size="13" lengthAdjust="spacing" textLength="100.3564" x="316" y="280.2469">publish to topic</text></g><!--link Stream to Preproc--><g class="link" data-entity-1="Stream" data-entity-2="Preproc" data-source-line="35" data-uid="lnk20" id="link_Stream_Preproc"><path codeLine="35" d="M452.79,99.95 C455.16,124.33 457.9512,152.938 460.1512,175.638" fill="none" id="Stream-to-Preproc" style="stroke:#181818;stroke-width:1;"/><polygon fill="#181818" points="460.73,181.61,463.8432,172.2661,460.2477,176.6333,455.8805,173.0378,460.73,181.61" style="stroke:#181818;stroke-width:1;"/><text fill="#000000" font-family="sans-serif" font-size="13" lengthAdjust="spacing" textLength="90.6191" x="459" y="142.6569">route for prep</text></g><!--link Preproc to ML--><g class="link" data-entity-1="Preproc" data-entity-2="ML" data-source-line="36" data-uid="lnk21" id="link_Preproc_ML"><path codeLine="36" d="M464.35,230.33 C465.95,258.23 468.2868,298.8098 470.0068,328.8298" fill="none" id="Preproc-to-ML" style="stroke:#181818;stroke-width:1;"/><polygon fill="#181818" points="470.35,334.82,473.8286,325.6059,470.064,329.8282,465.8417,326.0635,470.35,334.82" style="stroke:#181818;stroke-width:1;"/><text fill="#000000" font-family="sans-serif" font-size="13" lengthAdjust="spacing" textLength="83.8906" x="469" y="280.2469">clean + infer</text></g><!--link ML to PG--><g class="link" data-entity-1="ML" data-entity-2="PG" data-source-line="37" data-uid="lnk22" id="link_ML_PG"><path codeLine="37" d="M483.56,394.2 C494.92,422.46 509.9408,459.7735 521.2808,487.9635" fill="none" id="ML-to-PG" style="stroke:#181818;stroke-width:1;"/><polygon fill="#181818" points="523.52,493.53,523.8721,483.6874,521.654,488.8913,516.4502,486.6731,523.52,493.53" style="stroke:#181818;stroke-width:1;"/><text fill="#000000" font-family="sans-serif" font-size="13" lengthAdjust="spacing" textLength="74.3628" x="503" y="438.8469">store result</text></g><!--link ML to CH--><g class="link" data-entity-1="ML" data-entity-2="CH" data-source-line="38" data-uid="lnk23" id="link_ML_CH"><path codeLine="38" d="M532.26,394.15 C561.87,409.34 597.44,429.28 627,450.78 C644.98,463.85 659.3798,475.8691 674.5798,489.4091" fill="none" id="ML-to-CH" style="stroke:#181818;stroke-width:1;"/><polygon fill="#181818" points="679.06,493.4,675.0003,484.4268,675.3265,490.0742,669.679,490.4004,679.06,493.4" style="stroke:#181818;stroke-width:1;"/><text fill="#000000" font-family="sans-serif" font-size="13" lengthAdjust="spacing" textLength="85.9346" x="616" y="438.8469">store metrics</text></g><!--link ML to WS--><g class="link" data-entity-1="ML" data-entity-2="WS" data-source-line="39" data-uid="lnk24" id="link_ML_WS"><path codeLine="39" d="M442.04,393.99 C431.76,403.93 420.27,415.24 410,425.78 C386.16,450.23 363.725,474.6404 345.905,494.3404" fill="none" id="ML-to-WS" style="stroke:#181818;stroke-width:1;"/><polygon fill="#181818" points="341.88,498.79,350.8839,494.7989,345.2342,495.082,344.9511,489.4322,341.88,498.79" style="stroke:#181818;stroke-width:1;"/><text fill="#000000" font-family="sans-serif" font-size="13" lengthAdjust="spacing" textLength="78.3682" x="411" y="438.8469">notify result</text></g><!--link Prom to Graf--><g class="link" data-entity-1="Prom" data-entity-2="Graf" data-source-line="40" data-uid="lnk25" id="link_Prom_Graf"><path codeLine="40" d="M797,99.95 C797,122.49 797,147.75 797,170.27" fill="none" id="Prom-to-Graf" style="stroke:#181818;stroke-width:1;"/><polygon fill="#181818" points="797,176.27,801,167.27,797,171.27,793,167.27,797,176.27" style="stroke:#181818;stroke-width:1;"/></g><!--SRC=[TLF1Rfj04Btp5LFtqghAoL8FFbIAiOEjsX4DjNpfPRmCUCLw5yqkgQog_zvPm8r850a9cFTuy-RDyg6aIbk2ftNwy_unswr16VG-yOssBJ9UW4a5jBKX-9C0B54rDRlEbgapZk7Zm-hXwteU4SSbyL0z6Q4bVvEabJlM1BFKQB812btIh1TwQJWxU6BOsa1SeQ9VzjFUYH86xIpaQCbydW5wE6mdYXa6-erNsE6L-8rcwaHF6jxdMnYPlOYyPySfzKYdmgc60Zowe2iTrOHvB2RjSdQAlDUsVgTZ4PWahYVNoI0on7Ui6XoS3z2Klj_9o1KnsJXoGVoi5VNi_MxAp9dQb-O7gqDF6yiJaoiC-8wztFbGCnK_TkADoVJneW4V7DDWCyzUPMYqQZQkyt4dAEHhqCh3QZdGqysh0EQmx6AEaStgh9y9ZAlzcC5yudJlP0x7Cj5Rf-mk5CxKUH6I9vQceq51fjoCiH9dGYpHdqyEkHoe4OWD3rkuk_ish1qMuCcMeDpb8cSZ6OeH7dUtWBOx6UtF49nShLR9Y4JI6BYmEEuOAZdehTII6n19ijQ5_4A45hw0ZWjEfDH_diN-CMtvfNndmWr8D_-1STeRSYm4iV5GNc_Vn0XwB0xu3m00]--></g></svg>