<svg xmlns="http://www.w3.org/2000/svg" xmlns:xlink="http://www.w3.org/1999/xlink" contentStyleType="text/css" data-diagram-type="ACTIVITY" height="840px" preserveAspectRatio="none" style="width:1112px;height:840px;background:#FFFFFF;" version="1.1" viewBox="0 0 1112 840" width="1112px" zoomAndPan="magnify"><defs/><g><rect fill="none" height="20.9531" style="stroke:none;stroke-width:1;" width="1079.4019" x="15" y="12.7451"/><ellipse cx="227.1211" cy="48.6982" fill="#222222" rx="10" ry="10" style="stroke:#222222;stroke-width:1;"/><rect fill="#F1F1F1" height="33.9688" rx="12.5" ry="12.5" style="stroke:#181818;stroke-width:0.5;" width="242.4805" x="105.8809" y="78.6982"/><text fill="#000000" font-family="sans-serif" font-size="12" lengthAdjust="spacing" textLength="222.4805" x="115.8809" y="99.8369">&#1055;&#1086;&#1083;&#1100;&#1079;&#1086;&#1074;&#1072;&#1090;&#1077;&#1083;&#1100; &#1087;&#1080;&#1096;&#1077;&#1090; &#1082;&#1086;&#1084;&#1084;&#1077;&#1085;&#1090;&#1072;&#1088;&#1080;&#1081;</text><rect fill="#F1F1F1" height="47.9375" rx="12.5" ry="12.5" style="stroke:#181818;stroke-width:0.5;" width="221.3398" x="116.4512" y="132.667"/><text fill="#000000" font-family="sans-serif" font-size="12" lengthAdjust="spacing" textLength="200.3965" x="126.4512" y="153.8057">&#1052;&#1086;&#1076;&#1077;&#1088;&#1072;&#1090;&#1086;&#1088; &#1089;&#1083;&#1091;&#1095;&#1072;&#1081;&#1085;&#1099;&#1084; &#1086;&#1073;&#1088;&#1072;&#1079;&#1086;&#1084;</text><text fill="#000000" font-family="sans-serif" font-size="12" lengthAdjust="spacing" textLength="201.3398" x="126.4512" y="167.7744">&#1087;&#1088;&#1086;&#1074;&#1077;&#1088;&#1103;&#1077;&#1090; &#1095;&#1072;&#1089;&#1090;&#1100; &#1082;&#1086;&#1084;&#1084;&#1077;&#1085;&#1090;&#1072;&#1088;&#1080;&#1077;&#1074;</text><rect fill="#F1F1F1" height="33.9688" rx="12.5" ry="12.5" style="stroke:#181818;stroke-width:0.5;" width="159.0078" x="147.6172" y="200.6045"/><text fill="#000000" font-family="sans-serif" font-size="12" lengthAdjust="spacing" textLength="139.0078" x="157.6172" y="221.7432">&#1056;&#1091;&#1095;&#1085;&#1086;&#1081; &#1072;&#1085;&#1072;&#1083;&#1080;&#1079; &#1090;&#1077;&#1082;&#1089;&#1090;&#1072;</text><polygon fill="#F1F1F1" points="155.9729,254.5732,298.2693,254.5732,310.2693,266.5732,298.2693,278.5732,155.9729,278.5732,143.9729,266.5732,155.9729,254.5732" style="stroke:#181818;stroke-width:0.5;"/><text fill="#000000" font-family="sans-serif" font-size="11" lengthAdjust="spacing" textLength="142.2964" x="155.9729" y="270.3813">&#1050;&#1086;&#1084;&#1084;&#1077;&#1085;&#1090;&#1072;&#1088;&#1080;&#1081; &#1090;&#1086;&#1082;&#1089;&#1080;&#1095;&#1077;&#1085;?</text><text fill="#000000" font-family="sans-serif" font-size="11" lengthAdjust="spacing" textLength="14.3462" x="129.6267" y="263.979">&#1076;&#1072;</text><text fill="#000000" font-family="sans-serif" font-size="11" lengthAdjust="spacing" textLength="20.3672" x="310.2693" y="263.979">&#1085;&#1077;&#1090;</text><rect fill="#F1F1F1" height="47.9375" rx="12.5" ry="12.5" style="stroke:#181818;stroke-width:0.5;" width="181.0273" x="21" y="288.5732"/><text fill="#000000" font-family="sans-serif" font-size="12" lengthAdjust="spacing" textLength="126.123" x="31" y="309.7119">&#1052;&#1086;&#1076;&#1077;&#1088;&#1072;&#1090;&#1086;&#1088; &#1091;&#1076;&#1072;&#1083;&#1103;&#1077;&#1090;</text><text fill="#000000" font-family="sans-serif" font-size="12" lengthAdjust="spacing" textLength="161.0273" x="31" y="323.6807">&#1080;&#1083;&#1080; &#1089;&#1082;&#1088;&#1099;&#1074;&#1072;&#1077;&#1090; &#1089;&#1086;&#1086;&#1073;&#1097;&#1077;&#1085;&#1080;&#1077;</text><rect fill="#F1F1F1" height="33.9688" rx="12.5" ry="12.5" style="stroke:#181818;stroke-width:0.5;" width="241.4023" x="222.0273" y="288.5732"/><text fill="#000000" font-family="sans-serif" font-size="12" lengthAdjust="spacing" textLength="221.4023" x="232.0273" y="309.7119">&#1050;&#1086;&#1084;&#1084;&#1077;&#1085;&#1090;&#1072;&#1088;&#1080;&#1081; &#1086;&#1089;&#1090;&#1072;&#1105;&#1090;&#1089;&#1103; &#1076;&#1086;&#1089;&#1090;&#1091;&#1087;&#1085;&#1099;&#1084;</text><polygon fill="#F1F1F1" points="227.1211,342.5107,239.1211,354.5107,227.1211,366.5107,215.1211,354.5107,227.1211,342.5107" style="stroke:#181818;stroke-width:0.5;"/><ellipse cx="227.1211" cy="397.5107" fill="none" rx="11" ry="11" style="stroke:#222222;stroke-width:1;"/><ellipse cx="227.1211" cy="397.5107" fill="#222222" rx="6" ry="6" style="stroke:#222222;stroke-width:1;"/><line style="stroke:#000000;stroke-width:1.5;" x1="15" x2="15" y1="12.7451" y2="828.3232"/><ellipse cx="790.1392" cy="428.5107" fill="#222222" rx="10" ry="10" style="stroke:#222222;stroke-width:1;"/><rect fill="#F1F1F1" height="33.9688" rx="12.5" ry="12.5" style="stroke:#181818;stroke-width:0.5;" width="242.4805" x="668.8989" y="458.5107"/><text fill="#000000" font-family="sans-serif" font-size="12" lengthAdjust="spacing" textLength="222.4805" x="678.8989" y="479.6494">&#1055;&#1086;&#1083;&#1100;&#1079;&#1086;&#1074;&#1072;&#1090;&#1077;&#1083;&#1100; &#1087;&#1080;&#1096;&#1077;&#1090; &#1082;&#1086;&#1084;&#1084;&#1077;&#1085;&#1090;&#1072;&#1088;&#1080;&#1081;</text><rect fill="#F1F1F1" height="47.9375" rx="12.5" ry="12.5" style="stroke:#181818;stroke-width:0.5;" width="194.4629" x="692.9077" y="512.4795"/><text fill="#000000" font-family="sans-serif" font-size="12" lengthAdjust="spacing" textLength="158.25" x="702.9077" y="533.6182">ML-&#1089;&#1080;&#1089;&#1090;&#1077;&#1084;&#1072; &#1072;&#1085;&#1072;&#1083;&#1080;&#1079;&#1080;&#1088;&#1091;&#1077;&#1090;</text><text fill="#000000" font-family="sans-serif" font-size="12" lengthAdjust="spacing" textLength="174.4629" x="702.9077" y="547.5869">&#1090;&#1086;&#1085;&#1072;&#1083;&#1100;&#1085;&#1086;&#1089;&#1090;&#1100; &#1080; &#1090;&#1086;&#1082;&#1089;&#1080;&#1095;&#1085;&#1086;&#1089;&#1090;&#1100;</text><polygon fill="#F1F1F1" points="724.8052,580.417,855.4731,580.417,867.4731,592.417,855.4731,604.417,724.8052,604.417,712.8052,592.417,724.8052,580.417" style="stroke:#181818;stroke-width:0.5;"/><text fill="#000000" font-family="sans-serif" font-size="11" lengthAdjust="spacing" textLength="130.668" x="724.8052" y="596.2251">&#1056;&#1077;&#1079;&#1091;&#1083;&#1100;&#1090;&#1072;&#1090; &#1090;&#1086;&#1082;&#1089;&#1080;&#1095;&#1085;&#1099;&#1081;?</text><text fill="#000000" font-family="sans-serif" font-size="11" lengthAdjust="spacing" textLength="14.3462" x="698.459" y="589.8228">&#1076;&#1072;</text><text fill="#000000" font-family="sans-serif" font-size="11" lengthAdjust="spacing" textLength="20.3672" x="867.4731" y="589.8228">&#1085;&#1077;&#1090;</text><rect fill="#F1F1F1" height="33.9688" rx="12.5" ry="12.5" style="stroke:#181818;stroke-width:0.5;" width="145.877" x="558.4229" y="614.417"/><text fill="#000000" font-family="sans-serif" font-size="12" lengthAdjust="spacing" textLength="125.877" x="568.4229" y="635.5557">&#1060;&#1086;&#1088;&#1084;&#1080;&#1088;&#1091;&#1077;&#1090;&#1089;&#1103; &#1072;&#1083;&#1077;&#1088;&#1090;</text><rect fill="#F1F1F1" height="33.9688" rx="12.5" ry="12.5" style="stroke:#181818;stroke-width:0.5;" width="315.8633" x="473.4297" y="668.3857"/><text fill="#000000" font-family="sans-serif" font-size="12" lengthAdjust="spacing" textLength="295.8633" x="483.4297" y="689.5244">&#1040;&#1085;&#1072;&#1083;&#1080;&#1090;&#1080;&#1082; &#1087;&#1086;&#1076;&#1090;&#1074;&#1077;&#1088;&#1078;&#1076;&#1072;&#1077;&#1090; &#1080;&#1083;&#1080; &#1086;&#1090;&#1082;&#1083;&#1086;&#1085;&#1103;&#1077;&#1090; &#1072;&#1083;&#1077;&#1088;&#1090;</text><rect fill="#F1F1F1" height="33.9688" rx="12.5" ry="12.5" style="stroke:#181818;stroke-width:0.5;" width="301.2324" x="480.7451" y="722.3545"/><text fill="#000000" font-family="sans-serif" font-size="12" lengthAdjust="spacing" textLength="281.2324" x="490.7451" y="743.4932">&#1055;&#1088;&#1080; &#1087;&#1086;&#1076;&#1090;&#1074;&#1077;&#1088;&#1078;&#1076;&#1077;&#1085;&#1080;&#1080; &#8212; &#1091;&#1076;&#1072;&#1083;&#1077;&#1085;&#1080;&#1077;/&#1101;&#1089;&#1082;&#1072;&#1083;&#1072;&#1094;&#1080;&#1103;</text><rect fill="#F1F1F1" height="33.9688" rx="12.5" ry="12.5" style="stroke:#181818;stroke-width:0.5;" width="279.248" x="809.293" y="614.417"/><text fill="#000000" font-family="sans-serif" font-size="12" lengthAdjust="spacing" textLength="259.248" x="819.293" y="635.5557">&#1050;&#1086;&#1084;&#1084;&#1077;&#1085;&#1090;&#1072;&#1088;&#1080;&#1081; &#1086;&#1089;&#1090;&#1072;&#1105;&#1090;&#1089;&#1103; &#1086;&#1087;&#1091;&#1073;&#1083;&#1080;&#1082;&#1086;&#1074;&#1072;&#1085;&#1085;&#1099;&#1084;</text><polygon fill="#F1F1F1" points="790.1392,762.3232,802.1392,774.3232,790.1392,786.3232,778.1392,774.3232,790.1392,762.3232" style="stroke:#181818;stroke-width:0.5;"/><ellipse cx="790.1392" cy="817.3232" fill="none" rx="11" ry="11" style="stroke:#222222;stroke-width:1;"/><ellipse cx="790.1392" cy="817.3232" fill="#222222" rx="6" ry="6" style="stroke:#222222;stroke-width:1;"/><line style="stroke:#000000;stroke-width:1.5;" x1="467.4297" x2="467.4297" y1="12.7451" y2="828.3232"/><line style="stroke:#000000;stroke-width:1.5;" x1="1092.541" x2="1092.541" y1="12.7451" y2="828.3232"/><line style="stroke:#181818;stroke-width:1;" x1="227.1211" x2="227.1211" y1="58.6982" y2="78.6982"/><polygon fill="#181818" points="223.1211,68.6982,227.1211,78.6982,231.1211,68.6982,227.1211,72.6982" style="stroke:#181818;stroke-width:1;"/><line style="stroke:#181818;stroke-width:1;" x1="227.1211" x2="227.1211" y1="112.667" y2="132.667"/><polygon fill="#181818" points="223.1211,122.667,227.1211,132.667,231.1211,122.667,227.1211,126.667" style="stroke:#181818;stroke-width:1;"/><line style="stroke:#181818;stroke-width:1;" x1="227.1211" x2="227.1211" y1="180.6045" y2="200.6045"/><polygon fill="#181818" points="223.1211,190.6045,227.1211,200.6045,231.1211,190.6045,227.1211,194.6045" style="stroke:#181818;stroke-width:1;"/><line style="stroke:#181818;stroke-width:1;" x1="143.9729" x2="111.5137" y1="266.5732" y2="266.5732"/><line style="stroke:#181818;stroke-width:1;" x1="111.5137" x2="111.5137" y1="266.5732" y2="288.5732"/><polygon fill="#181818" points="107.5137,278.5732,111.5137,288.5732,115.5137,278.5732,111.5137,282.5732" style="stroke:#181818;stroke-width:1;"/><line style="stroke:#181818;stroke-width:1;" x1="310.2693" x2="342.7285" y1="266.5732" y2="266.5732"/><line style="stroke:#181818;stroke-width:1;" x1="342.7285" x2="342.7285" y1="266.5732" y2="288.5732"/><polygon fill="#181818" points="338.7285,278.5732,342.7285,288.5732,346.7285,278.5732,342.7285,282.5732" style="stroke:#181818;stroke-width:1;"/><line style="stroke:#181818;stroke-width:1;" x1="111.5137" x2="111.5137" y1="336.5107" y2="354.5107"/><line style="stroke:#181818;stroke-width:1;" x1="111.5137" x2="215.1211" y1="354.5107" y2="354.5107"/><polygon fill="#181818" points="205.1211,350.5107,215.1211,354.5107,205.1211,358.5107,209.1211,354.5107" style="stroke:#181818;stroke-width:1;"/><line style="stroke:#181818;stroke-width:1;" x1="342.7285" x2="342.7285" y1="322.542" y2="354.5107"/><line style="stroke:#181818;stroke-width:1;" x1="342.7285" x2="239.1211" y1="354.5107" y2="354.5107"/><polygon fill="#181818" points="249.1211,350.5107,239.1211,354.5107,249.1211,358.5107,245.1211,354.5107" style="stroke:#181818;stroke-width:1;"/><line style="stroke:#181818;stroke-width:1;" x1="227.1211" x2="227.1211" y1="234.5732" y2="254.5732"/><polygon fill="#181818" points="223.1211,244.5732,227.1211,254.5732,231.1211,244.5732,227.1211,248.5732" style="stroke:#181818;stroke-width:1;"/><line style="stroke:#181818;stroke-width:1;" x1="227.1211" x2="227.1211" y1="366.5107" y2="386.5107"/><polygon fill="#181818" points="223.1211,376.5107,227.1211,386.5107,231.1211,376.5107,227.1211,380.5107" style="stroke:#181818;stroke-width:1;"/><line style="stroke:#181818;stroke-width:1;" x1="790.1392" x2="790.1392" y1="438.5107" y2="458.5107"/><polygon fill="#181818" points="786.1392,448.5107,790.1392,458.5107,794.1392,448.5107,790.1392,452.5107" style="stroke:#181818;stroke-width:1;"/><line style="stroke:#181818;stroke-width:1;" x1="790.1392" x2="790.1392" y1="492.4795" y2="512.4795"/><polygon fill="#181818" points="786.1392,502.4795,790.1392,512.4795,794.1392,502.4795,790.1392,506.4795" style="stroke:#181818;stroke-width:1;"/><line style="stroke:#181818;stroke-width:1;" x1="631.3613" x2="631.3613" y1="648.3857" y2="668.3857"/><polygon fill="#181818" points="627.3613,658.3857,631.3613,668.3857,635.3613,658.3857,631.3613,662.3857" style="stroke:#181818;stroke-width:1;"/><line style="stroke:#181818;stroke-width:1;" x1="631.3613" x2="631.3613" y1="702.3545" y2="722.3545"/><polygon fill="#181818" points="627.3613,712.3545,631.3613,722.3545,635.3613,712.3545,631.3613,716.3545" style="stroke:#181818;stroke-width:1;"/><line style="stroke:#181818;stroke-width:1;" x1="712.8052" x2="631.3613" y1="592.417" y2="592.417"/><line style="stroke:#181818;stroke-width:1;" x1="631.3613" x2="631.3613" y1="592.417" y2="614.417"/><polygon fill="#181818" points="627.3613,604.417,631.3613,614.417,635.3613,604.417,631.3613,608.417" style="stroke:#181818;stroke-width:1;"/><line style="stroke:#181818;stroke-width:1;" x1="867.4731" x2="948.917" y1="592.417" y2="592.417"/><line style="stroke:#181818;stroke-width:1;" x1="948.917" x2="948.917" y1="592.417" y2="614.417"/><polygon fill="#181818" points="944.917,604.417,948.917,614.417,952.917,604.417,948.917,608.417" style="stroke:#181818;stroke-width:1;"/><line style="stroke:#181818;stroke-width:1;" x1="631.3613" x2="631.3613" y1="756.3232" y2="774.3232"/><line style="stroke:#181818;stroke-width:1;" x1="631.3613" x2="778.1392" y1="774.3232" y2="774.3232"/><polygon fill="#181818" points="768.1392,770.3232,778.1392,774.3232,768.1392,778.3232,772.1392,774.3232" style="stroke:#181818;stroke-width:1;"/><line style="stroke:#181818;stroke-width:1;" x1="948.917" x2="948.917" y1="648.3857" y2="774.3232"/><line style="stroke:#181818;stroke-width:1;" x1="948.917" x2="802.1392" y1="774.3232" y2="774.3232"/><polygon fill="#181818" points="812.1392,770.3232,802.1392,774.3232,812.1392,778.3232,808.1392,774.3232" style="stroke:#181818;stroke-width:1;"/><line style="stroke:#181818;stroke-width:1;" x1="790.1392" x2="790.1392" y1="560.417" y2="580.417"/><polygon fill="#181818" points="786.1392,570.417,790.1392,580.417,794.1392,570.417,790.1392,574.417" style="stroke:#181818;stroke-width:1;"/><line style="stroke:#181818;stroke-width:1;" x1="790.1392" x2="790.1392" y1="786.3232" y2="806.3232"/><polygon fill="#181818" points="786.1392,796.3232,790.1392,806.3232,794.1392,796.3232,790.1392,800.3232" style="stroke:#181818;stroke-width:1;"/><text fill="#000000" font-family="sans-serif" font-size="18" lengthAdjust="spacing" textLength="133.4883" x="174.4707" y="29.4531">&#1044;&#1086; &#1074;&#1085;&#1077;&#1076;&#1088;&#1077;&#1085;&#1080;&#1103;</text><text fill="#000000" font-family="sans-serif" font-size="18" lengthAdjust="spacing" textLength="165.4365" x="697.2671" y="29.4531">&#1055;&#1086;&#1089;&#1083;&#1077; &#1074;&#1085;&#1077;&#1076;&#1088;&#1077;&#1085;&#1080;&#1103;</text><!--SRC=[jLD1Ji9G5Dpt57yf2-FUBho0ti2DYH1D31fXoQ8jYMZGe0ahOm8B3r08bRRGSeNvL_0apdiVIC3kZ250ofityzxCeuCXIeCf2YIOsO2V1L8xw7YjziLzspl622KMzXbpVayHsuWGFXkiY7j4OYE3dBKbNsncFIPDYindymSBCs82RInjO6p8xgxj8KP6T1zBGyn442gnF6zYnISHOvyTg8BWRMWZqQqIIp0LkR4o5mHaXdm5tmjMvqQdpeK1iUzTDym1tgjc5c0fGExMaz99pRIlwatYPuXhdZ6LEtMbohrqM2wGYgoicdE3ljZcjWZPAii-EPkH-5xzfbKdUo40nryz68LqUlj65q8xC9JKdoY-SaQIh7bvtM1ojtUUrv7an6qa_vRlsUcXMXLgrnBnZkii19nEBL5VjKAfOZqvHT9TnxULTKXZqix9mIuLZlRWN3khYEXJOk4ysm6SOpANt5JaA-frCoevK-IoCPFbWruUlZHKtT_bITA8LYnaa_LTxbEEn9eg8fTtQhw3uVPSDaTmP5_aLFIds3v8F7-vYvB_doucca7kGYNDhmlv0G00]--></g></svg>