<svg xmlns="http://www.w3.org/2000/svg" xmlns:xlink="http://www.w3.org/1999/xlink" contentStyleType="text/css" data-diagram-type="CLASS" height="679px" preserveAspectRatio="none" style="width:426px;height:679px;background:#FFFFFF;" version="1.1" viewBox="0 0 426 679" width="426px" zoomAndPan="magnify"><defs/><g><!--class User--><g class="entity" data-entity="User" data-source-line="1" data-uid="ent0002" id="entity_User"><rect fill="#F1F1F1" height="96.8906" rx="2.5" ry="2.5" style="stroke:#181818;stroke-width:0.5;" width="200.6377" x="7" y="7"/><ellipse cx="87.1138" cy="23" fill="#ADD1B2" rx="11" ry="11" style="stroke:#181818;stroke-width:1;"/><path d="M91.2231,29 L83.5044,29 L83.5044,16.6094 L91.2231,16.6094 L91.2231,18.7656 L85.9575,18.7656 L85.9575,21.4375 L90.7231,21.4375 L90.7231,23.5938 L85.9575,23.5938 L85.9575,26.8438 L91.2231,26.8438 L91.2231,29 Z " fill="#000000"/><text fill="#000000" font-family="sans-serif" font-size="14" lengthAdjust="spacing" textLength="31.9102" x="107.6138" y="27.8467">User</text><line style="stroke:#181818;stroke-width:0.5;" x1="8" x2="206.6377" y1="39" y2="39"/><ellipse cx="18" cy="52.6484" fill="#000000" rx="3" ry="3" style="stroke:#000000;stroke-width:1;"/><text fill="#000000" font-family="sans-serif" font-size="14" lengthAdjust="spacing" textLength="61.7969" x="27" y="55.9951">id : UUID</text><ellipse cx="18" cy="68.9453" fill="#000000" rx="3" ry="3" style="stroke:#000000;stroke-width:1;"/><text fill="#000000" font-family="sans-serif" font-size="14" lengthAdjust="spacing" textLength="125.6377" x="27" y="72.292">username : String</text><ellipse cx="18" cy="85.2422" fill="#000000" rx="3" ry="3" style="stroke:#000000;stroke-width:1;"/><text fill="#000000" font-family="sans-serif" font-size="14" lengthAdjust="spacing" textLength="174.6377" x="27" y="88.5889">registered_at : DateTime</text><line style="stroke:#181818;stroke-width:0.5;" x1="8" x2="206.6377" y1="95.8906" y2="95.8906"/></g><!--class Reaction--><g class="entity" data-entity="Reaction" data-source-line="7" data-uid="ent0003" id="entity_Reaction"><rect fill="#F1F1F1" height="129.4844" rx="2.5" ry="2.5" style="stroke:#181818;stroke-width:0.5;" width="182.4746" x="128.08" y="163.89"/><ellipse cx="184.35" cy="179.89" fill="#ADD1B2" rx="11" ry="11" style="stroke:#181818;stroke-width:1;"/><path d="M188.4594,185.89 L180.7406,185.89 L180.7406,173.4994 L188.4594,173.4994 L188.4594,175.6556 L183.1938,175.6556 L183.1938,178.3275 L187.9594,178.3275 L187.9594,180.4838 L183.1938,180.4838 L183.1938,183.7338 L188.4594,183.7338 L188.4594,185.89 Z " fill="#000000"/><text fill="#000000" font-family="sans-serif" font-size="14" lengthAdjust="spacing" textLength="61.4346" x="204.85" y="184.7367">Reaction</text><line style="stroke:#181818;stroke-width:0.5;" x1="129.08" x2="309.5546" y1="195.89" y2="195.89"/><ellipse cx="139.08" cy="209.5384" fill="#000000" rx="3" ry="3" style="stroke:#000000;stroke-width:1;"/><text fill="#000000" font-family="sans-serif" font-size="14" lengthAdjust="spacing" textLength="61.7969" x="148.08" y="212.8851">id : UUID</text><ellipse cx="139.08" cy="225.8353" fill="#000000" rx="3" ry="3" style="stroke:#000000;stroke-width:1;"/><text fill="#000000" font-family="sans-serif" font-size="14" lengthAdjust="spacing" textLength="99.333" x="148.08" y="229.182">user_id : UUID</text><ellipse cx="139.08" cy="242.1322" fill="#000000" rx="3" ry="3" style="stroke:#000000;stroke-width:1;"/><text fill="#000000" font-family="sans-serif" font-size="14" lengthAdjust="spacing" textLength="122.3975" x="148.08" y="245.4789">content_id : UUID</text><ellipse cx="139.08" cy="258.4291" fill="#000000" rx="3" ry="3" style="stroke:#000000;stroke-width:1;"/><text fill="#000000" font-family="sans-serif" font-size="14" lengthAdjust="spacing" textLength="72.4336" x="148.08" y="261.7757">text : Text</text><ellipse cx="139.08" cy="274.7259" fill="#000000" rx="3" ry="3" style="stroke:#000000;stroke-width:1;"/><text fill="#000000" font-family="sans-serif" font-size="14" lengthAdjust="spacing" textLength="156.4746" x="148.08" y="278.0726">created_at : DateTime</text><line style="stroke:#181818;stroke-width:0.5;" x1="129.08" x2="309.5546" y1="285.3744" y2="285.3744"/></g><!--class Content--><g class="entity" data-entity="Content" data-source-line="15" data-uid="ent0004" id="entity_Content"><rect fill="#F1F1F1" height="96.8906" rx="2.5" ry="2.5" style="stroke:#181818;stroke-width:0.5;" width="176.5752" x="243.03" y="7"/><ellipse cx="299.2282" cy="23" fill="#ADD1B2" rx="11" ry="11" style="stroke:#181818;stroke-width:1;"/><path d="M303.3376,29 L295.6189,29 L295.6189,16.6094 L303.3376,16.6094 L303.3376,18.7656 L298.072,18.7656 L298.072,21.4375 L302.8376,21.4375 L302.8376,23.5938 L298.072,23.5938 L298.072,26.8438 L303.3376,26.8438 L303.3376,29 Z " fill="#000000"/><text fill="#000000" font-family="sans-serif" font-size="14" lengthAdjust="spacing" textLength="55.6787" x="319.7282" y="27.8467">Content</text><line style="stroke:#181818;stroke-width:0.5;" x1="244.03" x2="418.6052" y1="39" y2="39"/><ellipse cx="254.03" cy="52.6484" fill="#000000" rx="3" ry="3" style="stroke:#000000;stroke-width:1;"/><text fill="#000000" font-family="sans-serif" font-size="14" lengthAdjust="spacing" textLength="61.7969" x="263.03" y="55.9951">id : UUID</text><ellipse cx="254.03" cy="68.9453" fill="#000000" rx="3" ry="3" style="stroke:#000000;stroke-width:1;"/><text fill="#000000" font-family="sans-serif" font-size="14" lengthAdjust="spacing" textLength="86.6729" x="263.03" y="72.292">type : String</text><ellipse cx="254.03" cy="85.2422" fill="#000000" rx="3" ry="3" style="stroke:#000000;stroke-width:1;"/><text fill="#000000" font-family="sans-serif" font-size="14" lengthAdjust="spacing" textLength="150.5752" x="263.03" y="88.5889">posted_at : DateTime</text><line style="stroke:#181818;stroke-width:0.5;" x1="244.03" x2="418.6052" y1="95.8906" y2="95.8906"/></g><!--class SentimentScore--><g class="entity" data-entity="SentimentScore" data-source-line="21" data-uid="ent0005" id="entity_SentimentScore"><rect fill="#F1F1F1" height="145.7813" rx="2.5" ry="2.5" style="stroke:#181818;stroke-width:0.5;" width="200.4463" x="119.1" y="353.37"/><ellipse cx="159.5531" cy="369.37" fill="#ADD1B2" rx="11" ry="11" style="stroke:#181818;stroke-width:1;"/><path d="M163.6625,375.37 L155.9438,375.37 L155.9438,362.9794 L163.6625,362.9794 L163.6625,365.1356 L158.3969,365.1356 L158.3969,367.8075 L163.1625,367.8075 L163.1625,369.9638 L158.3969,369.9638 L158.3969,373.2138 L163.6625,373.2138 L163.6625,375.37 Z " fill="#000000"/><text fill="#000000" font-family="sans-serif" font-size="14" lengthAdjust="spacing" textLength="111.8838" x="179.2094" y="374.2167">SentimentScore</text><line style="stroke:#181818;stroke-width:0.5;" x1="120.1" x2="318.5463" y1="385.37" y2="385.37"/><ellipse cx="130.1" cy="399.0184" fill="#000000" rx="3" ry="3" style="stroke:#000000;stroke-width:1;"/><text fill="#000000" font-family="sans-serif" font-size="14" lengthAdjust="spacing" textLength="61.7969" x="139.1" y="402.3651">id : UUID</text><ellipse cx="130.1" cy="415.3153" fill="#000000" rx="3" ry="3" style="stroke:#000000;stroke-width:1;"/><text fill="#000000" font-family="sans-serif" font-size="14" lengthAdjust="spacing" textLength="126.2598" x="139.1" y="418.662">reaction_id : UUID</text><ellipse cx="130.1" cy="431.6122" fill="#000000" rx="3" ry="3" style="stroke:#000000;stroke-width:1;"/><text fill="#000000" font-family="sans-serif" font-size="14" lengthAdjust="spacing" textLength="86.9395" x="139.1" y="434.9589">tone : String</text><ellipse cx="130.1" cy="447.9091" fill="#000000" rx="3" ry="3" style="stroke:#000000;stroke-width:1;"/><text fill="#000000" font-family="sans-serif" font-size="14" lengthAdjust="spacing" textLength="99.7842" x="139.1" y="451.2557">toxicity : Float</text><ellipse cx="130.1" cy="464.2059" fill="#000000" rx="3" ry="3" style="stroke:#000000;stroke-width:1;"/><text fill="#000000" font-family="sans-serif" font-size="14" lengthAdjust="spacing" textLength="124.8311" x="139.1" y="467.5526">confidence : Float</text><ellipse cx="130.1" cy="480.5028" fill="#000000" rx="3" ry="3" style="stroke:#000000;stroke-width:1;"/><text fill="#000000" font-family="sans-serif" font-size="14" lengthAdjust="spacing" textLength="174.4463" x="139.1" y="483.8495">processed_at : DateTime</text><line style="stroke:#181818;stroke-width:0.5;" x1="120.1" x2="318.5463" y1="491.1513" y2="491.1513"/></g><!--class Alert--><g class="entity" data-entity="Alert" data-source-line="30" data-uid="ent0006" id="entity_Alert"><rect fill="#F1F1F1" height="113.1875" rx="2.5" ry="2.5" style="stroke:#181818;stroke-width:0.5;" width="165.5693" x="136.53" y="559.15"/><ellipse cx="198.4021" cy="575.15" fill="#ADD1B2" rx="11" ry="11" style="stroke:#181818;stroke-width:1;"/><path d="M202.5114,581.15 L194.7927,581.15 L194.7927,568.7594 L202.5114,568.7594 L202.5114,570.9156 L197.2458,570.9156 L197.2458,573.5875 L202.0114,573.5875 L202.0114,575.7438 L197.2458,575.7438 L197.2458,578.9938 L202.5114,578.9938 L202.5114,581.15 Z " fill="#000000"/><text fill="#000000" font-family="sans-serif" font-size="14" lengthAdjust="spacing" textLength="33.3252" x="218.9021" y="579.9967">Alert</text><line style="stroke:#181818;stroke-width:0.5;" x1="137.53" x2="301.0993" y1="591.15" y2="591.15"/><ellipse cx="147.53" cy="604.7984" fill="#000000" rx="3" ry="3" style="stroke:#000000;stroke-width:1;"/><text fill="#000000" font-family="sans-serif" font-size="14" lengthAdjust="spacing" textLength="61.7969" x="156.53" y="608.1451">id : UUID</text><ellipse cx="147.53" cy="621.0953" fill="#000000" rx="3" ry="3" style="stroke:#000000;stroke-width:1;"/><text fill="#000000" font-family="sans-serif" font-size="14" lengthAdjust="spacing" textLength="139.5693" x="156.53" y="624.442">sentiment_id : UUID</text><ellipse cx="147.53" cy="637.3922" fill="#000000" rx="3" ry="3" style="stroke:#000000;stroke-width:1;"/><text fill="#000000" font-family="sans-serif" font-size="14" lengthAdjust="spacing" textLength="137.9492" x="156.53" y="640.7389">escalated : Boolean</text><ellipse cx="147.53" cy="653.6891" fill="#000000" rx="3" ry="3" style="stroke:#000000;stroke-width:1;"/><text fill="#000000" font-family="sans-serif" font-size="14" lengthAdjust="spacing" textLength="129.7734" x="156.53" y="657.0357">reviewer_id : UUID</text><line style="stroke:#181818;stroke-width:0.5;" x1="137.53" x2="301.0993" y1="664.3375" y2="664.3375"/></g><!--link User to Reaction--><g class="link" data-entity-1="User" data-entity-2="Reaction" data-source-line="37" data-uid="lnk7" id="link_User_Reaction"><path codeLine="37" d="M142.9003,110.8242 C154.9403,129.2242 154.6546,128.7978 167.5446,148.4978" fill="none" id="User-Reaction" style="stroke:#181818;stroke-width:1;"/><line style="stroke:#181818;stroke-width:1;" x1="137.3631" x2="144.0573" y1="109.6673" y2="105.2869"/><line style="stroke:#181818;stroke-width:1;" x1="139.0057" x2="145.6999" y1="112.1776" y2="107.7973"/><line style="stroke:#181818;stroke-width:1;" x1="142.9003" x2="138.52" y1="110.8242" y2="104.13"/><line style="stroke:#181818;stroke-width:1;" x1="173.0198" x2="182.4207" y1="156.8657" y2="160.2749"/><line style="stroke:#181818;stroke-width:1;" x1="173.0198" x2="172.3793" y1="156.8657" y2="166.8451"/><line style="stroke:#181818;stroke-width:1;" x1="173.0198" x2="177.4" y1="156.8657" y2="163.56"/><ellipse cx="169.7347" cy="151.8449" fill="none" rx="4" ry="4" style="stroke:#181818;stroke-width:1;"/></g><!--link Content to Reaction--><g class="link" data-entity-1="Content" data-entity-2="Reaction" data-source-line="38" data-uid="lnk8" id="link_Content_Reaction"><path codeLine="38" d="M295.7397,110.8242 C283.6997,129.2242 283.9854,128.7978 271.0954,148.4978" fill="none" id="Content-Reaction" style="stroke:#181818;stroke-width:1;"/><line style="stroke:#181818;stroke-width:1;" x1="294.5827" x2="301.2769" y1="105.2869" y2="109.6673"/><line style="stroke:#181818;stroke-width:1;" x1="292.9401" x2="299.6343" y1="107.7973" y2="112.1776"/><line style="stroke:#181818;stroke-width:1;" x1="295.7397" x2="300.12" y1="110.8242" y2="104.13"/><line style="stroke:#181818;stroke-width:1;" x1="265.6202" x2="266.2607" y1="156.8657" y2="166.8451"/><line style="stroke:#181818;stroke-width:1;" x1="265.6202" x2="256.2193" y1="156.8657" y2="160.2749"/><line style="stroke:#181818;stroke-width:1;" x1="265.6202" x2="261.24" y1="156.8657" y2="163.56"/><ellipse cx="268.9053" cy="151.8449" fill="none" rx="4" ry="4" style="stroke:#181818;stroke-width:1;"/></g><!--link Reaction to SentimentScore--><g class="link" data-entity-1="Reaction" data-entity-2="SentimentScore" data-source-line="39" data-uid="lnk9" id="link_Reaction_SentimentScore"><path codeLine="39" d="M219.32,301.69 C219.32,320.63 219.32,325.5 219.32,344.93" fill="none" id="Reaction-SentimentScore" style="stroke:#181818;stroke-width:1;"/><line style="stroke:#181818;stroke-width:1;" x1="215.32" x2="223.32" y1="297.69" y2="297.69"/><line style="stroke:#181818;stroke-width:1;" x1="215.32" x2="223.32" y1="300.69" y2="300.69"/><line style="stroke:#181818;stroke-width:1;" x1="219.32" x2="219.32" y1="301.69" y2="293.69"/><line style="stroke:#181818;stroke-width:1;" x1="223.32" x2="215.32" y1="348.93" y2="348.93"/><line style="stroke:#181818;stroke-width:1;" x1="223.32" x2="215.32" y1="345.93" y2="345.93"/><line style="stroke:#181818;stroke-width:1;" x1="219.32" x2="219.32" y1="344.93" y2="352.93"/></g><!--link SentimentScore to Alert--><g class="link" data-entity-1="SentimentScore" data-entity-2="Alert" data-source-line="40" data-uid="lnk10" id="link_SentimentScore_Alert"><path codeLine="40" d="M219.32,507.48 C219.32,527.18 219.32,522.23 219.32,540.87" fill="none" id="SentimentScore-Alert" style="stroke:#181818;stroke-width:1;"/><line style="stroke:#181818;stroke-width:1;" x1="215.32" x2="223.32" y1="503.48" y2="503.48"/><line style="stroke:#181818;stroke-width:1;" x1="215.32" x2="223.32" y1="506.48" y2="506.48"/><line style="stroke:#181818;stroke-width:1;" x1="219.32" x2="219.32" y1="507.48" y2="499.48"/><line style="stroke:#181818;stroke-width:1;" x1="219.32" x2="225.32" y1="550.87" y2="558.87"/><line style="stroke:#181818;stroke-width:1;" x1="219.32" x2="213.32" y1="550.87" y2="558.87"/><line style="stroke:#181818;stroke-width:1;" x1="219.32" x2="219.32" y1="550.87" y2="558.87"/><ellipse cx="219.32" cy="544.87" fill="none" rx="4" ry="4" style="stroke:#181818;stroke-width:1;"/></g><!--SRC=[VL91RiCW4BppYbMEbVA1tDf6bNgjutE4y3H2ibaBjcsYk7ylEEO0JNo1PHPcTdQ14oiNshG1VaDNHVH4jgCTjUtxVZvznOpJ0oBMYBVkDACU9ni47jrHIqpjjU1W1wXVfR1mVa0RiUmUynvBoB2J-BX21UUaS8ZRxPP755lHVRtHt9ULorXP6JciqZKf6EBI6FQup-eNgtNfx2enuRCrYNP7RprhoRu_RGTdKC2ZPuCGrcfxxk4V60svxAec1AFxrC08lZ3tq6wny6tnKyma2gL_GTEqtVALyZpLqk1_U0xcn3HHsJbL7lFhsS8V]--></g></svg>