<svg xmlns="http://www.w3.org/2000/svg" xmlns:xlink="http://www.w3.org/1999/xlink" contentStyleType="text/css" data-diagram-type="SEQUENCE" height="458px" preserveAspectRatio="none" style="width:1024px;height:458px;background:#FFFFFF;" version="1.1" viewBox="0 0 1024 458" width="1024px" zoomAndPan="magnify"><defs/><g><g><title>&#1055;&#1086;&#1083;&#1100;&#1079;&#1086;&#1074;&#1072;&#1090;&#1077;&#1083;&#1100;</title><rect fill="#000000" fill-opacity="0.00000" height="296.3281" width="8" x="55.5498" y="81.2969"/><line style="stroke:#181818;stroke-width:0.5;stroke-dasharray:5.0,5.0;" x1="59" x2="59" y1="81.2969" y2="377.625"/></g><g><title>Content Interface</title><rect fill="#000000" fill-opacity="0.00000" height="296.3281" width="8" x="248.5688" y="81.2969"/><line style="stroke:#181818;stroke-width:0.5;stroke-dasharray:5.0,5.0;" x1="252.165" x2="252.165" y1="81.2969" y2="377.625"/></g><g><title>Gateway API</title><rect fill="#000000" fill-opacity="0.00000" height="296.3281" width="8" x="427.9087" y="81.2969"/><line style="stroke:#181818;stroke-width:0.5;stroke-dasharray:5.0,5.0;" x1="431.687" x2="431.687" y1="81.2969" y2="377.625"/></g><g><title>Stream Dispatcher</title><rect fill="#000000" fill-opacity="0.00000" height="296.3281" width="8" x="605.6616" y="81.2969"/><line style="stroke:#181818;stroke-width:0.5;stroke-dasharray:5.0,5.0;" x1="609.0264" x2="609.0264" y1="81.2969" y2="377.625"/></g><g><title>Sentiment Engine</title><rect fill="#000000" fill-opacity="0.00000" height="296.3281" width="8" x="757.6953" y="81.2969"/><line style="stroke:#181818;stroke-width:0.5;stroke-dasharray:5.0,5.0;" x1="761.2969" x2="761.2969" y1="81.2969" y2="377.625"/></g><g><title>Inference Store</title><rect fill="#000000" fill-opacity="0.00000" height="296.3281" width="8" x="962.3916" y="81.2969"/><line style="stroke:#181818;stroke-width:0.5;stroke-dasharray:5.0,5.0;" x1="965.4629" x2="965.4629" y1="81.2969" y2="377.625"/></g><g class="participant participant-head" data-participant="User"><text fill="#000000" font-family="sans-serif" font-size="14" lengthAdjust="spacing" textLength="103.0996" x="5" y="77.9951">&#1055;&#1086;&#1083;&#1100;&#1079;&#1086;&#1074;&#1072;&#1090;&#1077;&#1083;&#1100;</text><ellipse cx="59.5498" cy="13.5" fill="#E2E2F0" rx="8" ry="8" style="stroke:#181818;stroke-width:0.5;"/><path d="M59.5498,21.5 L59.5498,48.5 M46.5498,29.5 L72.5498,29.5 M59.5498,48.5 L46.5498,63.5 M59.5498,48.5 L72.5498,63.5" fill="none" style="stroke:#181818;stroke-width:0.5;"/></g><g class="participant participant-tail" data-participant="User"><text fill="#000000" font-family="sans-serif" font-size="14" lengthAdjust="spacing" textLength="103.0996" x="5" y="389.6201">&#1055;&#1086;&#1083;&#1100;&#1079;&#1086;&#1074;&#1072;&#1090;&#1077;&#1083;&#1100;</text><ellipse cx="59.5498" cy="401.4219" fill="#E2E2F0" rx="8" ry="8" style="stroke:#181818;stroke-width:0.5;"/><path d="M59.5498,409.4219 L59.5498,436.4219 M46.5498,417.4219 L72.5498,417.4219 M59.5498,436.4219 L46.5498,451.4219 M59.5498,436.4219 L72.5498,451.4219" fill="none" style="stroke:#181818;stroke-width:0.5;"/></g><g class="participant participant-head" data-participant="CI"><rect fill="#E2E2F0" height="30.2969" rx="2.5" ry="2.5" style="stroke:#181818;stroke-width:0.5;" width="136.8076" x="184.165" y="50"/><text fill="#000000" font-family="sans-serif" font-size="14" lengthAdjust="spacing" textLength="122.8076" x="191.165" y="69.9951">Content Interface</text></g><g class="participant participant-tail" data-participant="CI"><rect fill="#E2E2F0" height="30.2969" rx="2.5" ry="2.5" style="stroke:#181818;stroke-width:0.5;" width="136.8076" x="184.165" y="376.625"/><text fill="#000000" font-family="sans-serif" font-size="14" lengthAdjust="spacing" textLength="122.8076" x="191.165" y="396.6201">Content Interface</text></g><g class="participant participant-head" data-participant="API"><rect fill="#E2E2F0" height="30.2969" rx="2.5" ry="2.5" style="stroke:#181818;stroke-width:0.5;" width="102.4434" x="380.687" y="50"/><text fill="#000000" font-family="sans-serif" font-size="14" lengthAdjust="spacing" textLength="88.4434" x="387.687" y="69.9951">Gateway API</text></g><g class="participant participant-tail" data-participant="API"><rect fill="#E2E2F0" height="30.2969" rx="2.5" ry="2.5" style="stroke:#181818;stroke-width:0.5;" width="102.4434" x="380.687" y="376.625"/><text fill="#000000" font-family="sans-serif" font-size="14" lengthAdjust="spacing" textLength="88.4434" x="387.687" y="396.6201">Gateway API</text></g><g class="participant participant-head" data-participant="Kafka"><rect fill="#E2E2F0" height="30.2969" rx="2.5" ry="2.5" style="stroke:#181818;stroke-width:0.5;" width="145.2705" x="537.0264" y="50"/><text fill="#000000" font-family="sans-serif" font-size="14" lengthAdjust="spacing" textLength="131.2705" x="544.0264" y="69.9951">Stream Dispatcher</text></g><g class="participant participant-tail" data-participant="Kafka"><rect fill="#E2E2F0" height="30.2969" rx="2.5" ry="2.5" style="stroke:#181818;stroke-width:0.5;" width="145.2705" x="537.0264" y="376.625"/><text fill="#000000" font-family="sans-serif" font-size="14" lengthAdjust="spacing" textLength="131.2705" x="544.0264" y="396.6201">Stream Dispatcher</text></g><g class="participant participant-head" data-participant="ML"><rect fill="#E2E2F0" height="30.2969" rx="2.5" ry="2.5" style="stroke:#181818;stroke-width:0.5;" width="138.7969" x="692.2969" y="50"/><text fill="#000000" font-family="sans-serif" font-size="14" lengthAdjust="spacing" textLength="124.7969" x="699.2969" y="69.9951">Sentiment Engine</text></g><g class="participant participant-tail" data-participant="ML"><rect fill="#E2E2F0" height="30.2969" rx="2.5" ry="2.5" style="stroke:#181818;stroke-width:0.5;" width="138.7969" x="692.2969" y="376.625"/><text fill="#000000" font-family="sans-serif" font-size="14" lengthAdjust="spacing" textLength="124.7969" x="699.2969" y="396.6201">Sentiment Engine</text></g><g class="participant participant-head" data-participant="DB"><text fill="#000000" font-family="sans-serif" font-size="14" lengthAdjust="spacing" textLength="107.8574" x="909.4629" y="77.9951">Inference Store</text><path d="M948.3916,29 C948.3916,19 966.3916,19 966.3916,19 C966.3916,19 984.3916,19 984.3916,29 L984.3916,55 C984.3916,65 966.3916,65 966.3916,65 C966.3916,65 948.3916,65 948.3916,55 L948.3916,29" fill="#E2E2F0" style="stroke:#181818;stroke-width:1.5;"/><path d="M948.3916,29 C948.3916,39 966.3916,39 966.3916,39 C966.3916,39 984.3916,39 984.3916,29" fill="none" style="stroke:#181818;stroke-width:1.5;"/></g><g class="participant participant-tail" data-participant="DB"><text fill="#000000" font-family="sans-serif" font-size="14" lengthAdjust="spacing" textLength="107.8574" x="909.4629" y="389.6201">Inference Store</text><path d="M948.3916,402.9219 C948.3916,392.9219 966.3916,392.9219 966.3916,392.9219 C966.3916,392.9219 984.3916,392.9219 984.3916,402.9219 L984.3916,428.9219 C984.3916,438.9219 966.3916,438.9219 966.3916,438.9219 C966.3916,438.9219 948.3916,438.9219 948.3916,428.9219 L948.3916,402.9219" fill="#E2E2F0" style="stroke:#181818;stroke-width:1.5;"/><path d="M948.3916,402.9219 C948.3916,412.9219 966.3916,412.9219 966.3916,412.9219 C966.3916,412.9219 984.3916,412.9219 984.3916,402.9219" fill="none" style="stroke:#181818;stroke-width:1.5;"/></g><g class="message" data-participant-1="User" data-participant-2="CI"><polygon fill="#181818" points="240.5688,108.4297,250.5688,112.4297,240.5688,116.4297,244.5688,112.4297" style="stroke:#181818;stroke-width:1;"/><line style="stroke:#181818;stroke-width:1;" x1="59.5498" x2="246.5688" y1="112.4297" y2="112.4297"/><text fill="#000000" font-family="sans-serif" font-size="13" lengthAdjust="spacing" textLength="169.019" x="66.5498" y="107.3638">&#1054;&#1089;&#1090;&#1072;&#1074;&#1083;&#1103;&#1077;&#1090; &#1082;&#1086;&#1084;&#1084;&#1077;&#1085;&#1090;&#1072;&#1088;&#1080;&#1081;</text></g><g class="message" data-participant-1="CI" data-participant-2="API"><polygon fill="#181818" points="419.9087,137.5625,429.9087,141.5625,419.9087,145.5625,423.9087,141.5625" style="stroke:#181818;stroke-width:1;"/><line style="stroke:#181818;stroke-width:1;" x1="252.5688" x2="425.9087" y1="141.5625" y2="141.5625"/><text fill="#000000" font-family="sans-serif" font-size="13" lengthAdjust="spacing" textLength="104.5396" x="259.5688" y="136.4966">POST /comment</text></g><g class="message" data-participant-1="API" data-participant-2="Kafka"><polygon fill="#181818" points="597.6616,166.6953,607.6616,170.6953,597.6616,174.6953,601.6616,170.6953" style="stroke:#181818;stroke-width:1;"/><line style="stroke:#181818;stroke-width:1;" x1="431.9087" x2="603.6616" y1="170.6953" y2="170.6953"/><text fill="#000000" font-family="sans-serif" font-size="13" lengthAdjust="spacing" textLength="153.7529" x="438.9087" y="165.6294">&#1055;&#1091;&#1073;&#1083;&#1080;&#1082;&#1091;&#1077;&#1090; &#1089;&#1086;&#1086;&#1073;&#1097;&#1077;&#1085;&#1080;&#1077;</text></g><g class="message" data-participant-1="Kafka" data-participant-2="ML"><polygon fill="#181818" points="749.6953,195.8281,759.6953,199.8281,749.6953,203.8281,753.6953,199.8281" style="stroke:#181818;stroke-width:1;"/><line style="stroke:#181818;stroke-width:1;" x1="609.6616" x2="755.6953" y1="199.8281" y2="199.8281"/><text fill="#000000" font-family="sans-serif" font-size="13" lengthAdjust="spacing" textLength="123.5" x="616.6616" y="194.7622">Consume message</text></g><g class="message" data-participant-1="ML" data-participant-2="ML"><line style="stroke:#181818;stroke-width:1;" x1="761.6953" x2="803.6953" y1="244.0938" y2="244.0938"/><line style="stroke:#181818;stroke-width:1;" x1="803.6953" x2="803.6953" y1="244.0938" y2="257.0938"/><line style="stroke:#181818;stroke-width:1;" x1="762.6953" x2="803.6953" y1="257.0938" y2="257.0938"/><polygon fill="#181818" points="772.6953,253.0938,762.6953,257.0938,772.6953,261.0938,768.6953,257.0938" style="stroke:#181818;stroke-width:1;"/><text fill="#000000" font-family="sans-serif" font-size="13" lengthAdjust="spacing" textLength="99.271" x="768.6953" y="223.895">&#1040;&#1085;&#1072;&#1083;&#1080;&#1079; &#1090;&#1077;&#1082;&#1089;&#1090;&#1072;</text><text fill="#000000" font-family="sans-serif" font-size="13" lengthAdjust="spacing" textLength="190.6963" x="768.6953" y="239.0278">(&#1090;&#1086;&#1082;&#1089;&#1080;&#1095;&#1085;&#1086;&#1089;&#1090;&#1100;, &#1090;&#1086;&#1085;&#1072;&#1083;&#1100;&#1085;&#1086;&#1089;&#1090;&#1100;)</text></g><g class="message" data-participant-1="ML" data-participant-2="DB"><polygon fill="#181818" points="954.3916,282.2266,964.3916,286.2266,954.3916,290.2266,958.3916,286.2266" style="stroke:#181818;stroke-width:1;"/><line style="stroke:#181818;stroke-width:1;" x1="761.6953" x2="960.3916" y1="286.2266" y2="286.2266"/><text fill="#000000" font-family="sans-serif" font-size="13" lengthAdjust="spacing" textLength="146.9038" x="768.6953" y="281.1606">&#1057;&#1086;&#1093;&#1088;&#1072;&#1085;&#1103;&#1077;&#1090; &#1088;&#1077;&#1079;&#1091;&#1083;&#1100;&#1090;&#1072;&#1090;</text></g><g class="message" data-participant-1="ML" data-participant-2="API"><polygon fill="#181818" points="442.9087,311.3594,432.9087,315.3594,442.9087,319.3594,438.9087,315.3594" style="stroke:#181818;stroke-width:1;"/><line style="stroke:#181818;stroke-width:1;" x1="436.9087" x2="760.6953" y1="315.3594" y2="315.3594"/><text fill="#000000" font-family="sans-serif" font-size="13" lengthAdjust="spacing" textLength="155.9556" x="448.9087" y="310.2935">&#1054;&#1090;&#1087;&#1088;&#1072;&#1074;&#1083;&#1103;&#1077;&#1090; &#1088;&#1077;&#1079;&#1091;&#1083;&#1100;&#1090;&#1072;&#1090;</text></g><g class="message" data-participant-1="API" data-participant-2="CI"><polygon fill="#181818" points="263.5688,355.625,253.5688,359.625,263.5688,363.625,259.5688,359.625" style="stroke:#181818;stroke-width:1;"/><line style="stroke:#181818;stroke-width:1;" x1="257.5688" x2="430.9087" y1="359.625" y2="359.625"/><text fill="#000000" font-family="sans-serif" font-size="13" lengthAdjust="spacing" textLength="153.6768" x="269.5688" y="339.4263">&#1054;&#1073;&#1085;&#1086;&#1074;&#1083;&#1103;&#1077;&#1090; &#1080;&#1085;&#1090;&#1077;&#1088;&#1092;&#1077;&#1081;&#1089;</text><text fill="#000000" font-family="sans-serif" font-size="13" lengthAdjust="spacing" textLength="155.3398" x="269.5688" y="354.5591">&#1089; &#1092;&#1083;&#1072;&#1075;&#1086;&#1084;/&#1088;&#1077;&#1079;&#1091;&#1083;&#1100;&#1090;&#1072;&#1090;&#1086;&#1084;</text></g><!--SRC=[RLBBIiD05DtdAuQi59JkNGYs5GcsMAZkkXdZj0R9j2GHSTT6HOI2Ve75FuXAw2Cs_iATF_BC95QgaiNatdlEcNjEmjse7x2JK0ICXyoc2UMKgJ5DSRvHec9ATMrR0nv4dkiDk8oONUlBIE35mH5qkIjipQuvwwW37eahVitsMewPurm7jAD0S9_LlN308_TS10PsoBiN_1SGbtc-ld5VzZnPNDTiM6SyugSy5CnsP5S4Ghg2jM6e0DIhbcMSRUzYDxR3w5cDu2Y1iqmzKgfYHWiO_S2JqbAFr91cDBS01maBWzKwQX-pYjltzGAMxc5abjII4tL3hvI1jS2RbbGZIERqgXwqA0QfLQ11QpR0GNhXfI-OByAGzuI5vlU8di18ZDoKcV0NnSeTkO4ZroNDr3rGkHweyHOpVSF2TrlrDqlPUbNBlg1z1sy9N1R6KQGqnSfW6UDnIIXC8wgOFWtZ9wn_E6KSPRn8Ocb-d5MyCnDhgeRg5jov6dMa6Z4K6PJVTVQLlwgw_GK0]--></g></svg>